<?xml version="1.0" encoding="utf-8"?>
<!-- Generator: Adobe Illustrator 27.5.0, SVG Export Plug-In . SVG Version: 6.00 Build 0)  -->
<svg version="1.1" xmlns="http://www.w3.org/2000/svg" xmlns:xlink="http://www.w3.org/1999/xlink" x="0px" y="0px"
	 viewBox="0 0 500 500" style="enable-background:new 0 0 500 500;" xml:space="preserve">
<g id="BACKGROUND">
	<rect style="fill:#FFFFFF;" width="500" height="500"/>
</g>
<g id="OBJECTS">
	<g>
		
			<ellipse transform="matrix(0.7071 -0.7071 0.7071 0.7071 -88.3247 243.5781)" style="fill:#A6E3D6;" cx="249.862" cy="228.406" rx="107.179" ry="107.179"/>
		
			<polygon style="fill:#FFFFFF;stroke:#1C2E5A;stroke-width:3.5;stroke-linecap:round;stroke-linejoin:round;stroke-miterlimit:10;" points="
			365.864,270.895 345.772,252.029 373.011,257.615 		"/>
		<g>
			<g>
				<rect x="176.398" y="212.516" style="fill:#FFFFFF;" width="146.928" height="97.02"/>
				
					<rect x="176.398" y="212.516" style="fill:none;stroke:#1C2E5A;stroke-width:3.5;stroke-linecap:round;stroke-linejoin:round;stroke-miterlimit:10;" width="146.928" height="97.02"/>
			</g>
			<g>
				<path style="fill:#A8D8FF;" d="M182.014,335.585h135.697c9.291,0,16.822-7.532,16.822-16.822v-4.474
					c0-9.291-7.532-16.822-16.822-16.822H182.014c-9.291,0-16.822,7.532-16.822,16.822v4.474
					C165.191,328.053,172.723,335.585,182.014,335.585z"/>
				<g>
					<rect x="219.627" y="297.467" style="fill:#7CB2DE;" width="13.771" height="38.118"/>
					<path style="fill:#7CB2DE;" d="M172.927,300.146v32.76c2.622,1.688,5.736,2.679,9.087,2.679h4.685v-38.118h-4.685
						C178.663,297.467,175.549,298.458,172.927,300.146z"/>
					<rect x="196.277" y="297.467" style="fill:#7CB2DE;" width="13.771" height="38.118"/>
					<rect x="242.977" y="297.467" style="fill:#7CB2DE;" width="13.771" height="38.118"/>
					<path style="fill:#7CB2DE;" d="M326.798,332.906v-32.76c-2.622-1.688-5.736-2.679-9.087-2.679h-4.684v38.118h4.684
						C321.062,335.585,324.176,334.594,326.798,332.906z"/>
					<rect x="266.327" y="297.467" style="fill:#7CB2DE;" width="13.771" height="38.118"/>
					<rect x="289.677" y="297.467" style="fill:#7CB2DE;" width="13.771" height="38.118"/>
				</g>
				<path style="fill:none;stroke:#1C2E5A;stroke-width:3.5;stroke-linecap:round;stroke-linejoin:round;stroke-miterlimit:10;" d="
					M182.014,335.585h135.697c9.291,0,16.822-7.532,16.822-16.822v-4.474c0-9.291-7.532-16.822-16.822-16.822H182.014
					c-9.291,0-16.822,7.532-16.822,16.822v4.474C165.191,328.053,172.723,335.585,182.014,335.585z"/>
			</g>
			<g>
				<path style="fill:#FFFFFF;" d="M287.895,228.406c95.901,4.8,91.288-104.662,31.897-107.179
					c-45.301-1.919-50.071,44.036-50.071,44.036s-8.807-19.292-26.632-18.244c-17.824,1.049-23.276,18.244-23.276,18.244
					c-32.713-34.39-82.621-21.249-82.621,24.045s48.23,44.735,55.779,35.509L287.895,228.406z"/>
				<path style="fill:none;stroke:#1C2E5A;stroke-width:3.5;stroke-linecap:round;stroke-linejoin:round;stroke-miterlimit:10;" d="
					M299.675,228.411c83.625-4.391,76.963-104.775,20.117-107.184c-45.301-1.919-50.071,44.036-50.071,44.036
					s-8.807-19.292-26.632-18.244c-17.824,1.049-23.276,18.244-23.276,18.244c-32.713-34.39-82.621-21.249-82.621,24.045
					s48.23,44.735,55.779,35.509"/>
				<path style="fill:none;stroke:#1C2E5A;stroke-width:3.5;stroke-linecap:round;stroke-linejoin:round;stroke-miterlimit:10;" d="
					M219.814,165.264c0,0,2.513,3.518,3.23,6.649"/>
			</g>
			
				<ellipse transform="matrix(0.1622 -0.9868 0.9868 0.1622 -27.1323 448.334)" style="fill:#FFD06C;" cx="250.457" cy="240.145" rx="39.987" ry="39.987"/>
			<g>
				<path style="fill:#6FD198;" d="M254.048,257.569c11.232-11.232,10.381-24.666-3.333-35.511
					c-18.729-14.811-49.317-17.139-49.317-17.139s2.328,30.588,17.139,49.317C229.382,267.951,242.815,268.802,254.048,257.569z"/>
				<path style="fill:none;stroke:#3DB88A;stroke-width:3.5;stroke-linecap:round;stroke-linejoin:round;stroke-miterlimit:10;" d="
					M229.477,235.573c0,0,5.616,18.954,24.57,21.996"/>
				<path style="fill:none;stroke:#1C2E5A;stroke-width:3.5;stroke-linecap:round;stroke-linejoin:round;stroke-miterlimit:10;" d="
					M254.048,257.569c11.232-11.232,10.381-24.666-3.333-35.511c-18.729-14.811-49.317-17.139-49.317-17.139
					s2.328,30.588,17.139,49.317C229.382,267.951,242.815,268.802,254.048,257.569z"/>
			</g>
			<g>
				<path style="fill:#6FD198;" d="M268.809,261.365c15.885,0,24.782-10.101,22.753-27.467
					c-2.771-23.717-22.753-46.992-22.753-46.992s-19.983,23.275-22.753,46.992C244.027,251.264,252.925,261.365,268.809,261.365z"/>
				<path style="fill:none;stroke:#3DB88A;stroke-width:3.5;stroke-linecap:round;stroke-linejoin:round;stroke-miterlimit:10;" d="
					M266.989,228.438c0,0-9.431,17.374,1.82,32.927"/>
				<path style="fill:none;stroke:#1C2E5A;stroke-width:3.5;stroke-linecap:round;stroke-linejoin:round;stroke-miterlimit:10;" d="
					M268.809,261.365c15.885,0,24.782-10.101,22.753-27.467c-2.771-23.717-22.753-46.992-22.753-46.992
					s-19.983,23.275-22.753,46.992C244.027,251.264,252.925,261.365,268.809,261.365z"/>
			</g>
		</g>
		
			<polygon style="fill:#FFFFFF;stroke:#1C2E5A;stroke-width:3.5;stroke-linecap:round;stroke-linejoin:round;stroke-miterlimit:10;" points="
			152.671,288.332 142.684,284.027 157.381,267.801 		"/>
		
			<polygon style="fill:#FFFFFF;stroke:#1C2E5A;stroke-width:3.5;stroke-linecap:round;stroke-linejoin:round;stroke-miterlimit:10;" points="
			130.822,249.038 154.546,248.784 136.555,261.462 		"/>
		
			<polygon style="fill:#FFFFFF;stroke:#1C2E5A;stroke-width:3.5;stroke-linecap:round;stroke-linejoin:round;stroke-miterlimit:10;" points="
			214.213,115.373 223.087,109.087 229.29,130.083 		"/>
		
			<polygon style="fill:#FFFFFF;stroke:#1C2E5A;stroke-width:3.5;stroke-linecap:round;stroke-linejoin:round;stroke-miterlimit:10;" points="
			259.136,117.174 247.003,137.563 245.544,115.602 		"/>
		
			<polygon style="fill:#FFFFFF;stroke:#1C2E5A;stroke-width:3.5;stroke-linecap:round;stroke-linejoin:round;stroke-miterlimit:10;" points="
			367.488,235.569 346.593,232.031 366.418,224.022 		"/>
	</g>
</g>
<g id="TEXTS">
	<rect x="84.913" y="366.695" style="fill:none;" width="330.174" height="39.913"/>
	<text transform="matrix(1 0 0 1 99.3447 393.6044)" style="fill:#1C2E5A; font-family:'PaytoneOne-Regular'; font-size:39px;">HEALTHY FOOD</text>
	<g>
		<g>
			<path style="fill:#7CB2DE;" d="M134.443,426.249v-7.722l-4.725-14.148h2.835l3.348,10.557l3.294-10.557h2.862l-4.698,14.148
				v7.722H134.443z"/>
			<path style="fill:#7CB2DE;" d="M148.132,426.465c-1.152,0-2.061-0.233-2.727-0.702c-0.666-0.468-1.139-1.134-1.417-1.998
				c-0.279-0.863-0.418-1.88-0.418-3.051v-4.536c0-1.17,0.139-2.187,0.418-3.051c0.279-0.864,0.751-1.529,1.417-1.998
				c0.666-0.468,1.575-0.702,2.727-0.702c1.152,0,2.056,0.234,2.713,0.702c0.657,0.469,1.125,1.134,1.404,1.998
				c0.279,0.864,0.418,1.881,0.418,3.051v4.536c0,1.171-0.14,2.188-0.418,3.051c-0.279,0.864-0.747,1.53-1.404,1.998
				C150.188,426.231,149.284,426.465,148.132,426.465z M148.132,424.332c0.558,0,0.949-0.162,1.174-0.486
				c0.225-0.323,0.36-0.751,0.405-1.282c0.044-0.53,0.067-1.084,0.067-1.66v-4.888c0-0.594-0.023-1.151-0.067-1.674
				c-0.045-0.521-0.18-0.949-0.405-1.282s-0.617-0.5-1.174-0.5c-0.558,0-0.954,0.167-1.188,0.5s-0.374,0.761-0.418,1.282
				c-0.045,0.522-0.067,1.08-0.067,1.674v4.888c0,0.576,0.022,1.13,0.067,1.66c0.045,0.531,0.185,0.959,0.418,1.282
				C147.178,424.17,147.574,424.332,148.132,424.332z"/>
			<path style="fill:#7CB2DE;" d="M157.555,426.465c-0.612,0-1.089-0.162-1.431-0.485c-0.342-0.324-0.581-0.729-0.715-1.216
				c-0.135-0.485-0.203-0.98-0.203-1.484v-12.637h2.889v11.772c0,0.559,0.081,0.995,0.243,1.31c0.162,0.315,0.495,0.473,0.999,0.473
				c0.324,0,0.662-0.095,1.013-0.284c0.351-0.188,0.688-0.418,1.012-0.688v-12.582h2.889v15.606h-2.889v-1.539
				c-0.504,0.486-1.076,0.9-1.714,1.242C159.008,426.294,158.311,426.465,157.555,426.465z"/>
			<path style="fill:#7CB2DE;" d="M175.185,426.249l-2.511-15.606h2.376l1.62,11.503l2.079-11.503h2.214l2.079,11.448l1.62-11.448
				h2.376l-2.592,15.606h-2.43l-2.133-11.016l-2.106,11.016H175.185z"/>
			<path style="fill:#7CB2DE;" d="M189.441,408.321v-3.024h2.889v3.024H189.441z M189.441,426.249v-15.606h2.889v15.606H189.441z"/>
			<path style="fill:#7CB2DE;" d="M195.705,426.249v-21.87h2.889v21.87H195.705z"/>
			<path style="fill:#7CB2DE;" d="M201.887,426.249v-21.87h2.889v21.87H201.887z"/>
			<path style="fill:#7CB2DE;" d="M218.302,426.465c-1.224,0-2.169-0.238-2.835-0.715c-0.666-0.478-1.13-1.179-1.39-2.106
				c-0.261-0.927-0.392-2.065-0.392-3.416v-3.563c0-1.386,0.135-2.538,0.405-3.456s0.743-1.61,1.417-2.079
				c0.675-0.468,1.606-0.702,2.794-0.702c1.314,0,2.282,0.271,2.903,0.811c0.621,0.54,1.03,1.318,1.229,2.335
				c0.198,1.018,0.297,2.237,0.297,3.659v1.269h-6.156v3.132c0,0.631,0.059,1.144,0.176,1.539c0.117,0.396,0.306,0.688,0.567,0.878
				c0.261,0.188,0.598,0.283,1.013,0.283c0.432,0,0.76-0.104,0.985-0.311c0.225-0.207,0.378-0.504,0.459-0.891
				s0.122-0.842,0.122-1.364v-0.944h2.808v0.594c0,1.566-0.333,2.799-0.999,3.699C221.038,426.016,219.904,426.465,218.302,426.465z
				 M216.574,416.934h3.321v-1.403c0-0.648-0.036-1.192-0.108-1.634c-0.072-0.44-0.221-0.773-0.446-0.999
				c-0.225-0.225-0.581-0.338-1.066-0.338c-0.468,0-0.823,0.108-1.066,0.324s-0.41,0.581-0.5,1.094
				c-0.09,0.513-0.135,1.22-0.135,2.119V416.934z"/>
			<path style="fill:#7CB2DE;" d="M228.157,426.465c-0.612,0-1.152-0.176-1.62-0.526c-0.468-0.351-0.837-0.801-1.107-1.35
				s-0.405-1.13-0.405-1.742c0-0.972,0.162-1.79,0.486-2.457c0.324-0.665,0.77-1.229,1.336-1.688s1.224-0.859,1.971-1.201
				c0.747-0.342,1.534-0.675,2.362-0.999v-1.106c0-0.63-0.036-1.152-0.108-1.566c-0.072-0.414-0.221-0.725-0.446-0.932
				s-0.563-0.311-1.012-0.311c-0.396,0-0.716,0.091-0.958,0.271c-0.243,0.18-0.418,0.437-0.527,0.77
				c-0.108,0.333-0.162,0.725-0.162,1.174v0.783l-2.862-0.108c0.036-1.728,0.432-3.001,1.188-3.82
				c0.756-0.818,1.926-1.229,3.51-1.229c1.548,0,2.646,0.424,3.294,1.27s0.972,2.07,0.972,3.672v7.128
				c0,0.486,0.013,0.954,0.041,1.404c0.027,0.45,0.063,0.868,0.108,1.255c0.044,0.388,0.085,0.752,0.122,1.094h-2.646
				c-0.054-0.288-0.122-0.652-0.203-1.094c-0.081-0.44-0.14-0.841-0.176-1.201c-0.18,0.612-0.526,1.184-1.039,1.715
				C229.764,426.199,229.057,426.465,228.157,426.465z M229.291,423.981c0.288,0,0.558-0.081,0.81-0.243
				c0.252-0.162,0.477-0.347,0.675-0.554s0.333-0.373,0.405-0.5v-4.428c-0.45,0.253-0.874,0.504-1.269,0.756
				c-0.396,0.253-0.743,0.518-1.04,0.797s-0.531,0.594-0.702,0.945c-0.171,0.351-0.256,0.751-0.256,1.201
				c0,0.63,0.117,1.125,0.351,1.485C228.499,423.802,228.841,423.981,229.291,423.981z"/>
			<path style="fill:#7CB2DE;" d="M241.009,426.465c-0.81,0-1.463-0.153-1.958-0.459c-0.496-0.306-0.855-0.737-1.08-1.296
				c-0.226-0.558-0.337-1.215-0.337-1.971v-10.18h-1.647v-1.917h1.647v-4.563h2.889v4.563h2.511v1.917h-2.511v9.99
				c0,0.612,0.099,1.049,0.297,1.31c0.198,0.262,0.576,0.392,1.134,0.392c0.144,0,0.311-0.009,0.5-0.027
				c0.189-0.018,0.374-0.035,0.553-0.054v2.133c-0.36,0.055-0.693,0.095-0.999,0.122
				C241.702,426.451,241.369,426.465,241.009,426.465z"/>
			<path style="fill:#7CB2DE;" d="M251.619,426.249v-21.87h2.89v21.87H251.619z"/>
			<path style="fill:#7CB2DE;" d="M257.722,408.321v-3.024h2.889v3.024H257.722z M257.722,426.249v-15.606h2.889v15.606H257.722z"/>
			<path style="fill:#7CB2DE;" d="M263.769,426.222v-21.87h2.89v13.041l4.212-6.75h3.023l-3.672,6.103l3.564,9.504h-2.89
				l-2.916-7.992l-1.322,1.998v5.967H263.769z"/>
			<path style="fill:#7CB2DE;" d="M279.618,426.465c-1.225,0-2.17-0.238-2.835-0.715c-0.666-0.478-1.13-1.179-1.391-2.106
				c-0.262-0.927-0.392-2.065-0.392-3.416v-3.563c0-1.386,0.135-2.538,0.405-3.456c0.27-0.918,0.742-1.61,1.417-2.079
				c0.675-0.468,1.606-0.702,2.795-0.702c1.313,0,2.281,0.271,2.902,0.811s1.03,1.318,1.229,2.335
				c0.197,1.018,0.297,2.237,0.297,3.659v1.269h-6.156v3.132c0,0.631,0.059,1.144,0.176,1.539c0.117,0.396,0.306,0.688,0.567,0.878
				c0.26,0.188,0.598,0.283,1.012,0.283c0.433,0,0.761-0.104,0.985-0.311c0.226-0.207,0.379-0.504,0.459-0.891
				c0.081-0.387,0.122-0.842,0.122-1.364v-0.944h2.808v0.594c0,1.566-0.333,2.799-0.999,3.699S281.22,426.465,279.618,426.465z
				 M277.89,416.934h3.321v-1.403c0-0.648-0.036-1.192-0.108-1.634c-0.072-0.44-0.221-0.773-0.445-0.999
				c-0.226-0.225-0.58-0.338-1.066-0.338c-0.468,0-0.823,0.108-1.066,0.324s-0.41,0.581-0.5,1.094s-0.135,1.22-0.135,2.119V416.934z
				"/>
			<path style="fill:#7CB2DE;" d="M295.655,426.465c-0.611,0-1.151-0.176-1.619-0.526c-0.469-0.351-0.838-0.801-1.107-1.35
				c-0.271-0.549-0.405-1.13-0.405-1.742c0-0.972,0.162-1.79,0.486-2.457c0.324-0.665,0.77-1.229,1.336-1.688
				c0.567-0.459,1.225-0.859,1.972-1.201c0.746-0.342,1.534-0.675,2.362-0.999v-1.106c0-0.63-0.036-1.152-0.108-1.566
				s-0.221-0.725-0.445-0.932c-0.226-0.207-0.563-0.311-1.013-0.311c-0.396,0-0.715,0.091-0.958,0.271s-0.419,0.437-0.526,0.77
				c-0.108,0.333-0.162,0.725-0.162,1.174v0.783l-2.862-0.108c0.036-1.728,0.433-3.001,1.188-3.82
				c0.756-0.818,1.926-1.229,3.51-1.229c1.548,0,2.646,0.424,3.294,1.27s0.972,2.07,0.972,3.672v7.128
				c0,0.486,0.014,0.954,0.041,1.404c0.026,0.45,0.063,0.868,0.107,1.255c0.045,0.388,0.086,0.752,0.122,1.094h-2.646
				c-0.054-0.288-0.121-0.652-0.202-1.094c-0.081-0.44-0.14-0.841-0.176-1.201c-0.18,0.612-0.526,1.184-1.039,1.715
				C297.262,426.199,296.556,426.465,295.655,426.465z M296.79,423.981c0.287,0,0.558-0.081,0.81-0.243s0.477-0.347,0.675-0.554
				s0.333-0.373,0.405-0.5v-4.428c-0.45,0.253-0.873,0.504-1.269,0.756c-0.396,0.253-0.743,0.518-1.04,0.797
				s-0.531,0.594-0.702,0.945c-0.171,0.351-0.256,0.751-0.256,1.201c0,0.63,0.116,1.125,0.351,1.485
				C295.997,423.802,296.34,423.981,296.79,423.981z"/>
			<path style="fill:#7CB2DE;" d="M308.508,426.465c-0.811,0-1.463-0.153-1.958-0.459s-0.854-0.737-1.08-1.296
				c-0.225-0.558-0.337-1.215-0.337-1.971v-10.18h-1.647v-1.917h1.647v-4.563h2.889v4.563h2.511v1.917h-2.511v9.99
				c0,0.612,0.099,1.049,0.297,1.31c0.198,0.262,0.576,0.392,1.134,0.392c0.145,0,0.311-0.009,0.5-0.027
				c0.188-0.018,0.373-0.035,0.554-0.054v2.133c-0.36,0.055-0.693,0.095-0.999,0.122C309.2,426.451,308.867,426.465,308.508,426.465
				z"/>
			<path style="fill:#7CB2DE;" d="M318.93,426.249v-21.87h2.889v7.884c0.522-0.503,1.107-0.936,1.755-1.296
				c0.648-0.359,1.368-0.54,2.16-0.54c0.612,0,1.084,0.162,1.418,0.486c0.333,0.324,0.566,0.729,0.702,1.215
				c0.135,0.486,0.202,0.981,0.202,1.485v12.636h-2.889V414.45c0-0.558-0.081-0.99-0.243-1.296s-0.495-0.459-0.999-0.459
				c-0.343,0-0.698,0.099-1.066,0.297c-0.369,0.198-0.716,0.441-1.04,0.729v12.528H318.93z"/>
			<path style="fill:#7CB2DE;" d="M335.156,426.465c-1.152,0-2.062-0.233-2.727-0.702c-0.667-0.468-1.139-1.134-1.418-1.998
				c-0.279-0.863-0.418-1.88-0.418-3.051v-4.536c0-1.17,0.139-2.187,0.418-3.051s0.751-1.529,1.418-1.998
				c0.665-0.468,1.574-0.702,2.727-0.702c1.151,0,2.057,0.234,2.714,0.702c0.656,0.469,1.124,1.134,1.403,1.998
				s0.419,1.881,0.419,3.051v4.536c0,1.171-0.14,2.188-0.419,3.051c-0.279,0.864-0.747,1.53-1.403,1.998
				C337.213,426.231,336.308,426.465,335.156,426.465z M335.156,424.332c0.558,0,0.949-0.162,1.175-0.486
				c0.225-0.323,0.359-0.751,0.404-1.282c0.045-0.53,0.068-1.084,0.068-1.66v-4.888c0-0.594-0.023-1.151-0.068-1.674
				c-0.045-0.521-0.18-0.949-0.404-1.282c-0.226-0.333-0.617-0.5-1.175-0.5c-0.559,0-0.954,0.167-1.188,0.5
				c-0.234,0.333-0.374,0.761-0.419,1.282c-0.045,0.522-0.067,1.08-0.067,1.674v4.888c0,0.576,0.022,1.13,0.067,1.66
				c0.045,0.531,0.185,0.959,0.419,1.282C334.202,424.17,334.598,424.332,335.156,424.332z"/>
			<path style="fill:#7CB2DE;" d="M342.338,426.249v-15.606h2.673v1.485c0.522-0.594,1.098-1.035,1.729-1.323
				c0.63-0.287,1.277-0.432,1.943-0.432c0.576,0,1.094,0.145,1.553,0.432c0.459,0.288,0.787,0.802,0.985,1.539
				c0.558-0.684,1.165-1.183,1.822-1.498c0.657-0.314,1.346-0.473,2.065-0.473c0.504,0,0.963,0.121,1.378,0.364
				c0.413,0.243,0.746,0.631,0.999,1.161c0.251,0.531,0.378,1.229,0.378,2.093v12.258h-2.646V414.18
				c0-0.756-0.121-1.264-0.364-1.525c-0.243-0.261-0.572-0.392-0.985-0.392c-0.396,0-0.811,0.113-1.242,0.338
				c-0.432,0.226-0.828,0.536-1.188,0.932c0,0.072,0,0.145,0,0.216c0,0.072,0,0.153,0,0.243v12.258h-2.646V414.18
				c0-0.756-0.122-1.264-0.364-1.525c-0.243-0.261-0.572-0.392-0.986-0.392c-0.396,0-0.806,0.113-1.229,0.338
				c-0.423,0.226-0.823,0.536-1.201,0.932v12.717H342.338z"/>
			<path style="fill:#7CB2DE;" d="M365.018,426.465c-1.225,0-2.17-0.238-2.835-0.715c-0.666-0.478-1.13-1.179-1.391-2.106
				c-0.262-0.927-0.392-2.065-0.392-3.416v-3.563c0-1.386,0.135-2.538,0.405-3.456c0.27-0.918,0.742-1.61,1.417-2.079
				c0.675-0.468,1.606-0.702,2.795-0.702c1.313,0,2.281,0.271,2.902,0.811s1.03,1.318,1.229,2.335
				c0.197,1.018,0.297,2.237,0.297,3.659v1.269h-6.156v3.132c0,0.631,0.059,1.144,0.176,1.539c0.117,0.396,0.306,0.688,0.567,0.878
				c0.26,0.188,0.598,0.283,1.012,0.283c0.433,0,0.761-0.104,0.985-0.311c0.226-0.207,0.379-0.504,0.459-0.891
				c0.081-0.387,0.122-0.842,0.122-1.364v-0.944h2.808v0.594c0,1.566-0.333,2.799-0.999,3.699S366.619,426.465,365.018,426.465z
				 M363.289,416.934h3.321v-1.403c0-0.648-0.036-1.192-0.108-1.634c-0.072-0.44-0.221-0.773-0.445-0.999
				c-0.226-0.225-0.58-0.338-1.066-0.338c-0.468,0-0.823,0.108-1.066,0.324s-0.41,0.581-0.5,1.094s-0.135,1.22-0.135,2.119V416.934z
				"/>
		</g>
	</g>
</g>
</svg>
